<?xml version="1.0" encoding="UTF-8"?>
<svg xmlns="http://www.w3.org/2000/svg" xmlns:xlink="http://www.w3.org/1999/xlink" width="50px" height="50px" viewBox="0 0 50 50" version="1.1">
<g id="surface1">
<path style=" stroke:none;fill-rule:nonzero;fill:rgb(0%,0%,0%);fill-opacity:1;" d="M 21.402344 4.140625 C 21.488281 4.140625 21.574219 4.140625 21.664062 4.136719 C 21.898438 4.136719 22.132812 4.136719 22.371094 4.140625 C 22.617188 4.140625 22.867188 4.140625 23.113281 4.136719 C 23.527344 4.136719 23.945312 4.136719 24.359375 4.140625 C 24.839844 4.140625 25.320312 4.140625 25.800781 4.140625 C 26.210938 4.136719 26.625 4.136719 27.039062 4.136719 C 27.285156 4.140625 27.53125 4.140625 27.777344 4.136719 C 28.007812 4.136719 28.238281 4.136719 28.46875 4.140625 C 28.554688 4.140625 28.640625 4.140625 28.722656 4.140625 C 29.621094 4.132812 29.621094 4.132812 29.964844 4.457031 C 30.402344 4.925781 30.375 5.871094 30.457031 6.476562 C 30.472656 6.585938 30.488281 6.699219 30.503906 6.808594 C 30.539062 7.070312 30.578125 7.328125 30.613281 7.589844 C 30.679688 8.058594 30.746094 8.523438 30.8125 8.992188 C 30.835938 9.183594 30.863281 9.371094 30.890625 9.5625 C 30.90625 9.660156 30.917969 9.761719 30.933594 9.859375 C 30.9375 9.90625 30.945312 9.949219 30.953125 9.996094 C 30.957031 10.039062 30.964844 10.078125 30.96875 10.121094 C 30.976562 10.175781 30.976562 10.175781 30.984375 10.230469 C 31 10.4375 31 10.4375 31.109375 10.59375 C 31.136719 10.605469 31.167969 10.617188 31.195312 10.628906 C 31.246094 10.648438 31.246094 10.648438 31.296875 10.671875 C 31.332031 10.683594 31.367188 10.699219 31.40625 10.714844 C 31.484375 10.746094 31.558594 10.78125 31.636719 10.8125 C 31.675781 10.828125 31.714844 10.847656 31.757812 10.863281 C 32.625 11.25 33.472656 11.757812 34.214844 12.351562 C 34.382812 12.484375 34.382812 12.484375 34.582031 12.542969 C 34.683594 12.515625 34.683594 12.515625 34.789062 12.46875 C 34.828125 12.453125 34.871094 12.4375 34.914062 12.417969 C 34.957031 12.402344 35.003906 12.382812 35.046875 12.363281 C 35.09375 12.34375 35.140625 12.324219 35.1875 12.304688 C 35.3125 12.253906 35.4375 12.203125 35.5625 12.148438 C 35.691406 12.09375 35.824219 12.042969 35.953125 11.988281 C 36.15625 11.90625 36.359375 11.820312 36.5625 11.738281 C 36.871094 11.609375 37.183594 11.484375 37.496094 11.359375 C 37.589844 11.324219 37.679688 11.285156 37.773438 11.25 C 37.820312 11.230469 37.871094 11.210938 37.917969 11.191406 C 38.082031 11.125 38.246094 11.058594 38.40625 10.996094 C 38.5625 10.933594 38.714844 10.871094 38.871094 10.808594 C 38.945312 10.777344 39.019531 10.75 39.097656 10.71875 C 39.203125 10.675781 39.308594 10.632812 39.414062 10.589844 C 39.460938 10.570312 39.460938 10.570312 39.507812 10.550781 C 39.855469 10.414062 40.132812 10.367188 40.492188 10.503906 C 40.753906 10.617188 40.882812 10.746094 41.03125 10.996094 C 41.046875 11.019531 41.058594 11.042969 41.074219 11.066406 C 41.230469 11.324219 41.378906 11.585938 41.527344 11.847656 C 41.585938 11.949219 41.644531 12.050781 41.703125 12.15625 C 41.722656 12.195312 41.722656 12.195312 41.746094 12.234375 C 41.886719 12.476562 42.027344 12.71875 42.167969 12.957031 C 42.390625 13.34375 42.613281 13.730469 42.835938 14.117188 C 43.027344 14.453125 43.21875 14.789062 43.417969 15.125 C 43.640625 15.507812 43.863281 15.894531 44.082031 16.28125 C 44.257812 16.589844 44.433594 16.890625 44.613281 17.195312 C 44.730469 17.394531 44.84375 17.59375 44.957031 17.792969 C 44.976562 17.824219 44.996094 17.855469 45.015625 17.890625 C 45.234375 18.277344 45.386719 18.609375 45.261719 19.0625 C 45.125 19.425781 44.808594 19.65625 44.503906 19.878906 C 44.261719 20.0625 44.023438 20.246094 43.789062 20.441406 C 43.546875 20.640625 43.296875 20.832031 43.042969 21.019531 C 42.8125 21.191406 42.589844 21.371094 42.367188 21.554688 C 42.132812 21.742188 41.898438 21.925781 41.660156 22.109375 C 41.503906 22.226562 41.347656 22.351562 41.191406 22.472656 C 41.144531 22.507812 41.144531 22.507812 41.09375 22.546875 C 40.957031 22.652344 40.824219 22.757812 40.691406 22.871094 C 40.582031 22.957031 40.582031 22.957031 40.5 22.957031 C 40.503906 22.992188 40.511719 23.027344 40.515625 23.0625 C 40.523438 23.105469 40.53125 23.152344 40.539062 23.199219 C 40.546875 23.246094 40.554688 23.289062 40.5625 23.335938 C 40.609375 23.699219 40.632812 24.0625 40.632812 24.429688 C 40.632812 24.472656 40.632812 24.515625 40.632812 24.5625 C 40.632812 24.652344 40.632812 24.746094 40.632812 24.835938 C 40.632812 24.976562 40.632812 25.113281 40.632812 25.25 C 40.636719 26.523438 40.636719 26.523438 40.5 27.042969 C 40.523438 27.050781 40.542969 27.0625 40.566406 27.070312 C 40.699219 27.144531 40.8125 27.234375 40.933594 27.332031 C 40.984375 27.371094 41.035156 27.414062 41.089844 27.457031 C 41.117188 27.476562 41.144531 27.5 41.171875 27.519531 C 41.292969 27.617188 41.417969 27.714844 41.542969 27.8125 C 41.589844 27.851562 41.640625 27.890625 41.6875 27.925781 C 41.722656 27.957031 41.722656 27.957031 41.761719 27.984375 C 42.5625 28.613281 42.5625 28.613281 42.636719 28.671875 C 42.683594 28.710938 42.734375 28.75 42.78125 28.785156 C 42.902344 28.878906 43.019531 28.972656 43.140625 29.070312 C 43.378906 29.257812 43.621094 29.445312 43.863281 29.632812 C 43.925781 29.683594 43.988281 29.734375 44.054688 29.78125 C 44.203125 29.898438 44.351562 30.015625 44.5 30.128906 C 44.90625 30.4375 45.230469 30.6875 45.304688 31.21875 C 45.328125 31.644531 45.074219 32.019531 44.863281 32.375 C 44.808594 32.464844 44.757812 32.550781 44.703125 32.640625 C 44.679688 32.6875 44.652344 32.730469 44.625 32.777344 C 44.492188 33.003906 44.363281 33.226562 44.230469 33.453125 C 44.179688 33.542969 44.125 33.636719 44.074219 33.726562 C 44.046875 33.769531 44.023438 33.816406 43.996094 33.863281 C 43.863281 34.089844 43.734375 34.316406 43.605469 34.542969 C 43.550781 34.632812 43.5 34.722656 43.449219 34.8125 C 43.136719 35.355469 42.824219 35.894531 42.511719 36.4375 C 42.484375 36.480469 42.457031 36.527344 42.433594 36.574219 C 42.378906 36.664062 42.328125 36.753906 42.277344 36.84375 C 42.144531 37.070312 42.011719 37.300781 41.882812 37.53125 C 41.75 37.753906 41.621094 37.980469 41.488281 38.207031 C 41.417969 38.328125 41.347656 38.453125 41.277344 38.578125 C 41.234375 38.652344 41.191406 38.726562 41.148438 38.800781 C 41.128906 38.832031 41.109375 38.867188 41.09375 38.898438 C 40.898438 39.230469 40.65625 39.457031 40.285156 39.570312 C 39.90625 39.613281 39.585938 39.492188 39.238281 39.347656 C 39.1875 39.328125 39.136719 39.308594 39.082031 39.285156 C 38.945312 39.230469 38.808594 39.175781 38.667969 39.117188 C 38.527344 39.0625 38.386719 39.003906 38.246094 38.949219 C 38 38.847656 37.75 38.746094 37.5 38.644531 C 37.464844 38.628906 37.433594 38.617188 37.394531 38.601562 C 37.230469 38.535156 37.0625 38.46875 36.898438 38.398438 C 36.601562 38.28125 36.308594 38.160156 36.015625 38.042969 C 35.878906 37.988281 35.746094 37.933594 35.609375 37.878906 C 35.457031 37.816406 35.304688 37.753906 35.152344 37.691406 C 35.105469 37.671875 35.058594 37.652344 35.011719 37.636719 C 34.96875 37.617188 34.929688 37.601562 34.882812 37.582031 C 34.847656 37.566406 34.808594 37.550781 34.773438 37.539062 C 34.664062 37.5 34.570312 37.472656 34.457031 37.457031 C 34.34375 37.527344 34.34375 37.527344 34.226562 37.628906 C 33.492188 38.226562 32.628906 38.753906 31.757812 39.125 C 31.710938 39.144531 31.664062 39.164062 31.617188 39.183594 C 31.527344 39.21875 31.441406 39.253906 31.351562 39.289062 C 31.292969 39.3125 31.292969 39.3125 31.230469 39.339844 C 31.195312 39.351562 31.164062 39.363281 31.125 39.378906 C 30.90625 39.585938 30.925781 40.089844 30.886719 40.378906 C 30.878906 40.425781 30.875 40.476562 30.867188 40.523438 C 30.851562 40.628906 30.835938 40.734375 30.824219 40.839844 C 30.800781 41.003906 30.777344 41.171875 30.753906 41.335938 C 30.746094 41.394531 30.738281 41.449219 30.730469 41.507812 C 30.726562 41.550781 30.726562 41.550781 30.71875 41.59375 C 30.667969 41.980469 30.613281 42.367188 30.5625 42.75 C 30.523438 43.011719 30.488281 43.273438 30.453125 43.535156 C 30.433594 43.671875 30.414062 43.808594 30.394531 43.945312 C 30.375 44.101562 30.355469 44.253906 30.332031 44.410156 C 30.328125 44.453125 30.320312 44.5 30.316406 44.542969 C 30.253906 44.96875 30.160156 45.40625 29.800781 45.679688 C 29.429688 45.90625 29.019531 45.863281 28.597656 45.859375 C 28.511719 45.859375 28.425781 45.859375 28.335938 45.863281 C 28.101562 45.863281 27.867188 45.863281 27.628906 45.859375 C 27.382812 45.859375 27.132812 45.859375 26.886719 45.863281 C 26.472656 45.863281 26.054688 45.863281 25.640625 45.859375 C 25.160156 45.859375 24.679688 45.859375 24.199219 45.859375 C 23.789062 45.863281 23.375 45.863281 22.960938 45.863281 C 22.714844 45.859375 22.46875 45.859375 22.222656 45.863281 C 21.992188 45.863281 21.761719 45.863281 21.53125 45.859375 C 21.445312 45.859375 21.359375 45.859375 21.277344 45.859375 C 20.425781 45.863281 20.425781 45.863281 20.125 45.625 C 19.789062 45.28125 19.730469 44.847656 19.667969 44.386719 C 19.660156 44.335938 19.652344 44.28125 19.644531 44.230469 C 19.625 44.089844 19.605469 43.945312 19.585938 43.804688 C 19.566406 43.65625 19.546875 43.507812 19.527344 43.363281 C 19.488281 43.082031 19.449219 42.800781 19.410156 42.519531 C 19.339844 42.019531 19.269531 41.515625 19.199219 41.015625 C 19.175781 40.839844 19.152344 40.664062 19.128906 40.484375 C 19.109375 40.351562 19.089844 40.214844 19.070312 40.082031 C 19.066406 40.03125 19.058594 39.984375 19.050781 39.933594 C 19.042969 39.867188 19.042969 39.867188 19.03125 39.796875 C 19.027344 39.757812 19.023438 39.722656 19.015625 39.679688 C 19 39.578125 19 39.578125 18.957031 39.457031 C 18.867188 39.402344 18.867188 39.402344 18.75 39.355469 C 18.707031 39.335938 18.664062 39.316406 18.617188 39.296875 C 18.546875 39.265625 18.546875 39.265625 18.472656 39.234375 C 17.574219 38.832031 16.648438 38.347656 15.890625 37.707031 C 15.867188 37.691406 15.847656 37.671875 15.824219 37.652344 C 15.769531 37.605469 15.714844 37.558594 15.660156 37.507812 C 15.464844 37.425781 15.316406 37.507812 15.125 37.582031 C 15.078125 37.601562 15.035156 37.617188 14.988281 37.636719 C 14.851562 37.691406 14.71875 37.746094 14.582031 37.800781 C 14.453125 37.855469 14.320312 37.90625 14.191406 37.960938 C 14.117188 37.992188 14.042969 38.023438 13.96875 38.050781 C 13.449219 38.261719 12.933594 38.472656 12.414062 38.679688 C 12.300781 38.726562 12.1875 38.773438 12.074219 38.820312 C 11.023438 39.242188 11.023438 39.242188 10.558594 39.425781 C 10.527344 39.4375 10.5 39.449219 10.46875 39.460938 C 10.09375 39.605469 9.832031 39.609375 9.453125 39.480469 C 9.09375 39.285156 8.921875 38.9375 8.730469 38.589844 C 8.699219 38.539062 8.671875 38.488281 8.640625 38.433594 C 8.582031 38.328125 8.523438 38.222656 8.460938 38.113281 C 8.332031 37.878906 8.195312 37.644531 8.058594 37.410156 C 8.007812 37.320312 7.957031 37.234375 7.90625 37.144531 C 7.878906 37.097656 7.855469 37.054688 7.828125 37.007812 C 7.699219 36.785156 7.566406 36.558594 7.4375 36.332031 C 7.386719 36.242188 7.332031 36.152344 7.28125 36.0625 C 6.34375 34.4375 6.34375 34.4375 6.265625 34.300781 C 6.214844 34.210938 6.160156 34.121094 6.109375 34.03125 C 5.976562 33.800781 5.84375 33.574219 5.714844 33.34375 C 5.6875 33.296875 5.660156 33.25 5.632812 33.203125 C 5.578125 33.113281 5.527344 33.019531 5.472656 32.929688 C 5.355469 32.722656 5.234375 32.515625 5.113281 32.308594 C 5.078125 32.253906 5.078125 32.253906 5.046875 32.199219 C 5.007812 32.132812 4.96875 32.066406 4.929688 32.003906 C 4.738281 31.675781 4.640625 31.351562 4.734375 30.976562 C 4.871094 30.59375 5.152344 30.375 5.476562 30.140625 C 5.714844 29.964844 5.945312 29.785156 6.175781 29.597656 C 6.414062 29.402344 6.660156 29.207031 6.90625 29.019531 C 7.050781 28.910156 7.191406 28.800781 7.332031 28.691406 C 7.355469 28.671875 7.378906 28.652344 7.402344 28.632812 C 7.453125 28.59375 7.503906 28.554688 7.550781 28.515625 C 7.671875 28.421875 7.792969 28.324219 7.917969 28.230469 C 7.964844 28.191406 8.015625 28.152344 8.0625 28.113281 C 8.160156 28.039062 8.257812 27.960938 8.355469 27.886719 C 8.378906 27.867188 8.402344 27.847656 8.425781 27.828125 C 8.476562 27.789062 8.523438 27.753906 8.570312 27.714844 C 8.699219 27.613281 8.828125 27.515625 8.953125 27.414062 C 8.992188 27.378906 8.992188 27.378906 9.035156 27.347656 C 9.085938 27.308594 9.136719 27.265625 9.1875 27.226562 C 9.289062 27.144531 9.371094 27.085938 9.5 27.042969 C 9.496094 27.007812 9.488281 26.972656 9.484375 26.9375 C 9.472656 26.871094 9.472656 26.871094 9.460938 26.800781 C 9.453125 26.753906 9.445312 26.710938 9.4375 26.664062 C 9.390625 26.300781 9.367188 25.9375 9.367188 25.570312 C 9.367188 25.503906 9.367188 25.503906 9.367188 25.4375 C 9.367188 25.347656 9.367188 25.253906 9.367188 25.164062 C 9.367188 25.023438 9.367188 24.886719 9.367188 24.75 C 9.363281 23.476562 9.363281 23.476562 9.5 22.957031 C 9.46875 22.945312 9.46875 22.945312 9.433594 22.929688 C 9.300781 22.855469 9.1875 22.765625 9.066406 22.667969 C 9.015625 22.628906 8.964844 22.585938 8.910156 22.542969 C 8.882812 22.523438 8.855469 22.5 8.828125 22.480469 C 8.707031 22.382812 8.582031 22.285156 8.457031 22.1875 C 8.410156 22.148438 8.359375 22.109375 8.3125 22.074219 C 8.277344 22.042969 8.277344 22.042969 8.238281 22.015625 C 6.855469 20.925781 6.855469 20.925781 6.78125 20.871094 C 6.734375 20.832031 6.683594 20.792969 6.636719 20.753906 C 6.515625 20.660156 6.394531 20.566406 6.277344 20.472656 C 6.242188 20.445312 6.242188 20.445312 6.207031 20.417969 C 6.160156 20.378906 6.113281 20.34375 6.066406 20.304688 C 5.921875 20.195312 5.78125 20.085938 5.640625 19.976562 C 5.605469 19.953125 5.570312 19.925781 5.539062 19.898438 C 5.472656 19.851562 5.40625 19.800781 5.34375 19.75 C 4.992188 19.484375 4.757812 19.230469 4.695312 18.78125 C 4.671875 18.355469 4.925781 17.980469 5.136719 17.625 C 5.191406 17.535156 5.242188 17.449219 5.296875 17.359375 C 5.335938 17.289062 5.335938 17.289062 5.375 17.222656 C 5.507812 16.996094 5.636719 16.773438 5.769531 16.546875 C 5.820312 16.457031 5.875 16.363281 5.925781 16.273438 C 5.964844 16.207031 5.964844 16.207031 6.003906 16.136719 C 6.136719 15.910156 6.265625 15.683594 6.394531 15.457031 C 6.449219 15.367188 6.5 15.277344 6.550781 15.1875 C 6.863281 14.644531 7.175781 14.105469 7.488281 13.5625 C 7.515625 13.519531 7.542969 13.472656 7.566406 13.425781 C 7.621094 13.335938 7.671875 13.246094 7.722656 13.15625 C 7.855469 12.929688 7.988281 12.699219 8.117188 12.46875 C 8.25 12.246094 8.378906 12.019531 8.511719 11.792969 C 8.582031 11.671875 8.652344 11.546875 8.722656 11.421875 C 8.765625 11.347656 8.808594 11.273438 8.851562 11.199219 C 8.871094 11.167969 8.890625 11.132812 8.90625 11.101562 C 9.101562 10.769531 9.34375 10.542969 9.714844 10.429688 C 10.082031 10.390625 10.386719 10.496094 10.722656 10.636719 C 10.800781 10.664062 10.875 10.695312 10.953125 10.726562 C 11.039062 10.761719 11.125 10.796875 11.214844 10.835938 C 11.445312 10.929688 11.675781 11.023438 11.910156 11.117188 C 12 11.152344 12.089844 11.1875 12.179688 11.222656 C 12.316406 11.28125 12.457031 11.335938 12.59375 11.390625 C 12.738281 11.449219 12.878906 11.507812 13.019531 11.5625 C 13.089844 11.589844 13.089844 11.589844 13.160156 11.621094 C 13.441406 11.734375 13.71875 11.847656 14 11.960938 C 14.171875 12.035156 14.347656 12.105469 14.523438 12.175781 C 14.605469 12.210938 14.6875 12.242188 14.769531 12.277344 C 14.882812 12.324219 14.996094 12.371094 15.109375 12.417969 C 15.140625 12.429688 15.175781 12.445312 15.207031 12.460938 C 15.378906 12.53125 15.378906 12.53125 15.554688 12.515625 C 15.578125 12.496094 15.601562 12.476562 15.625 12.457031 C 15.648438 12.441406 15.671875 12.425781 15.695312 12.410156 C 15.71875 12.394531 15.742188 12.375 15.769531 12.359375 C 15.796875 12.339844 15.824219 12.320312 15.851562 12.296875 C 15.878906 12.277344 15.910156 12.257812 15.941406 12.234375 C 16.480469 11.847656 17.039062 11.5 17.621094 11.179688 C 17.683594 11.144531 17.683594 11.144531 17.75 11.109375 C 17.953125 11 18.152344 10.902344 18.371094 10.824219 C 18.425781 10.800781 18.425781 10.800781 18.484375 10.78125 C 18.597656 10.738281 18.597656 10.738281 18.703125 10.710938 C 18.816406 10.667969 18.875 10.632812 18.957031 10.542969 C 19 10.40625 19 10.40625 19.019531 10.246094 C 19.027344 10.214844 19.03125 10.1875 19.035156 10.152344 C 19.050781 10.046875 19.066406 9.941406 19.082031 9.832031 C 19.089844 9.792969 19.09375 9.753906 19.101562 9.714844 C 19.140625 9.441406 19.179688 9.167969 19.214844 8.894531 C 19.234375 8.738281 19.257812 8.582031 19.277344 8.429688 C 19.339844 7.988281 19.398438 7.546875 19.460938 7.109375 C 19.496094 6.839844 19.535156 6.566406 19.570312 6.296875 C 19.585938 6.195312 19.597656 6.09375 19.613281 5.988281 C 19.632812 5.847656 19.652344 5.703125 19.671875 5.558594 C 19.675781 5.519531 19.683594 5.476562 19.6875 5.433594 C 19.75 5.015625 19.847656 4.585938 20.199219 4.320312 C 20.570312 4.09375 20.980469 4.136719 21.402344 4.140625 Z M 19.761719 19.933594 C 19.351562 20.351562 19.007812 20.828125 18.707031 21.332031 C 18.691406 21.359375 18.675781 21.386719 18.660156 21.414062 C 18.113281 22.359375 17.75 23.484375 17.742188 24.582031 C 17.742188 24.613281 17.742188 24.644531 17.742188 24.675781 C 17.730469 25.617188 17.730469 25.617188 17.875 26.542969 C 17.882812 26.574219 17.890625 26.609375 17.898438 26.644531 C 18.152344 27.664062 18.582031 28.640625 19.25 29.457031 C 19.269531 29.480469 19.285156 29.503906 19.304688 29.523438 C 19.882812 30.238281 20.542969 30.824219 21.332031 31.292969 C 21.371094 31.316406 21.371094 31.316406 21.414062 31.339844 C 23.082031 32.308594 25.070312 32.511719 26.925781 32.027344 C 27.84375 31.773438 28.714844 31.351562 29.457031 30.75 C 29.480469 30.730469 29.503906 30.714844 29.523438 30.695312 C 30.238281 30.117188 30.824219 29.457031 31.292969 28.667969 C 31.308594 28.640625 31.324219 28.613281 31.339844 28.585938 C 31.886719 27.640625 32.25 26.515625 32.257812 25.417969 C 32.257812 25.371094 32.257812 25.371094 32.257812 25.324219 C 32.269531 24.382812 32.269531 24.382812 32.125 23.457031 C 32.117188 23.425781 32.109375 23.390625 32.101562 23.355469 C 31.847656 22.335938 31.417969 21.359375 30.75 20.542969 C 30.722656 20.507812 30.722656 20.507812 30.695312 20.476562 C 30.117188 19.761719 29.457031 19.175781 28.667969 18.707031 C 28.640625 18.691406 28.613281 18.675781 28.585938 18.660156 C 25.679688 16.972656 22.117188 17.65625 19.761719 19.933594 Z M 19.761719 19.933594 "/>
</g>
</svg>
